<svg width="174" height="116" viewBox="0 0 174 116" fill="none" xmlns="http://www.w3.org/2000/svg">
<path d="M100.309 53.8121H97.7978C97.7262 53.4002 97.5942 53.0354 97.4017 52.7176C97.2092 52.3953 96.9697 52.1223 96.6832 51.8984C96.3967 51.6746 96.07 51.5068 95.7029 51.3949C95.3403 51.2785 94.9487 51.2203 94.5279 51.2203C93.7803 51.2203 93.1179 51.4083 92.5404 51.7843C91.963 52.1558 91.5109 52.7019 91.1841 53.4226C90.8573 54.1388 90.6939 55.0139 90.6939 56.048C90.6939 57.0999 90.8573 57.9862 91.1841 58.7069C91.5153 59.4231 91.9674 59.9647 92.5404 60.3318C93.1179 60.6944 93.7781 60.8757 94.5212 60.8757C94.933 60.8757 95.318 60.8219 95.6761 60.7145C96.0386 60.6026 96.3632 60.4392 96.6497 60.2244C96.9406 60.0095 97.1846 59.7454 97.3815 59.4321C97.583 59.1187 97.7217 58.7606 97.7978 58.3577L100.309 58.3712C100.215 59.0247 100.011 59.638 99.698 60.2109C99.3891 60.7839 98.984 61.2897 98.4827 61.7284C97.9814 62.1626 97.395 62.5028 96.7235 62.749C96.0521 62.9907 95.3068 63.1116 94.4876 63.1116C93.279 63.1116 92.2002 62.8318 91.2512 62.2723C90.3023 61.7127 89.5547 60.9048 89.0086 59.8483C88.4625 58.7919 88.1895 57.5251 88.1895 56.048C88.1895 54.5663 88.4647 53.2995 89.0153 52.2476C89.5659 51.1912 90.3157 50.3832 91.2647 49.8237C92.2136 49.2641 93.288 48.9844 94.4876 48.9844C95.253 48.9844 95.9648 49.0918 96.6228 49.3067C97.2808 49.5215 97.8672 49.8371 98.382 50.2534C98.8968 50.6652 99.3198 51.171 99.651 51.7709C99.9867 52.3662 100.206 53.0466 100.309 53.8121Z" fill="white"/>
<path d="M106.603 63.125C105.596 63.125 104.723 62.9034 103.985 62.4603C103.246 62.0171 102.673 61.3971 102.266 60.6004C101.863 59.8036 101.662 58.8725 101.662 57.8072C101.662 56.7418 101.863 55.8085 102.266 55.0072C102.673 54.206 103.246 53.5838 103.985 53.1406C104.723 52.6975 105.596 52.4759 106.603 52.4759C107.611 52.4759 108.483 52.6975 109.222 53.1406C109.961 53.5838 110.531 54.206 110.934 55.0072C111.342 55.8085 111.545 56.7418 111.545 57.8072C111.545 58.8725 111.342 59.8036 110.934 60.6004C110.531 61.3971 109.961 62.0171 109.222 62.4603C108.483 62.9034 107.611 63.125 106.603 63.125ZM106.617 61.1778C107.163 61.1778 107.619 61.0279 107.987 60.7279C108.354 60.4236 108.627 60.0162 108.806 59.5059C108.989 58.9956 109.081 58.4271 109.081 57.8004C109.081 57.1693 108.989 56.5986 108.806 56.0883C108.627 55.5735 108.354 55.1639 107.987 54.8595C107.619 54.5551 107.163 54.4029 106.617 54.4029C106.057 54.4029 105.592 54.5551 105.22 54.8595C104.853 55.1639 104.578 55.5735 104.394 56.0883C104.215 56.5986 104.126 57.1693 104.126 57.8004C104.126 58.4271 104.215 58.9956 104.394 59.5059C104.578 60.0162 104.853 60.4236 105.22 60.7279C105.592 61.0279 106.057 61.1778 106.617 61.1778Z" fill="white"/>
<path d="M117.057 63.1049C116.247 63.1049 115.522 62.8967 114.882 62.4804C114.242 62.0641 113.736 61.4598 113.364 60.6675C112.993 59.8752 112.807 58.9128 112.807 57.7803C112.807 56.6344 112.995 55.6675 113.371 54.8797C113.752 54.0874 114.264 53.4898 114.909 53.0869C115.553 52.6796 116.272 52.4759 117.064 52.4759C117.668 52.4759 118.165 52.5788 118.555 52.7848C118.944 52.9862 119.253 53.2301 119.481 53.5166C119.709 53.7986 119.886 54.065 120.012 54.3156H120.112V49.1724H122.55V62.9236H120.159V61.2987H120.012C119.886 61.5493 119.705 61.8157 119.468 62.0977C119.231 62.3752 118.917 62.6125 118.528 62.8094C118.138 63.0064 117.648 63.1049 117.057 63.1049ZM117.735 61.1107C118.25 61.1107 118.689 60.9719 119.051 60.6944C119.414 60.4124 119.689 60.0207 119.877 59.5193C120.065 59.018 120.159 58.4338 120.159 57.7669C120.159 57.0999 120.065 56.5202 119.877 56.0278C119.694 55.5354 119.421 55.1527 119.058 54.8797C118.7 54.6066 118.259 54.4701 117.735 54.4701C117.194 54.4701 116.742 54.6111 116.379 54.8931C116.017 55.1751 115.743 55.5645 115.56 56.0614C115.376 56.5583 115.285 57.1268 115.285 57.7669C115.285 58.4115 115.376 58.9867 115.56 59.4925C115.748 59.9938 116.023 60.39 116.386 60.6809C116.753 60.9674 117.203 61.1107 117.735 61.1107Z" fill="white"/>
<path d="M137.357 52.6102L139.439 56.4173L141.554 52.6102H144.126L141.017 57.7669L144.179 62.9236H141.621L139.439 59.2105L137.277 62.9236H134.699L137.841 57.7669L134.779 52.6102H137.357Z" fill="white"/>
<path fill-rule="evenodd" clip-rule="evenodd" d="M129.327 63.125C128.293 63.125 127.4 62.9101 126.648 62.4804C125.901 62.0462 125.326 61.433 124.923 60.6407C124.52 59.8439 124.318 58.9061 124.318 57.8273C124.318 56.7664 124.52 55.8353 124.923 55.0341C125.33 54.2284 125.899 53.6017 126.628 53.154C127.358 52.7019 128.215 52.4759 129.2 52.4759C129.836 52.4759 130.435 52.5788 130.999 52.7848C131.568 52.9862 132.069 53.2995 132.503 53.7248C132.942 54.15 133.287 54.6917 133.537 55.3497C133.788 56.0032 133.913 56.7821 133.913 57.6863V58.4316H126.729C126.736 59.0056 126.846 59.5003 127.058 59.9155C127.277 60.3407 127.584 60.6675 127.978 60.8958C128.372 61.1196 128.833 61.2315 129.361 61.2315C129.715 61.2315 130.035 61.1823 130.321 61.0838C130.608 60.9809 130.856 60.8309 131.066 60.6339C131.277 60.437 131.436 60.193 131.543 59.9021L133.813 60.1572C133.669 60.757 133.396 61.2808 132.994 61.7284C132.595 62.1715 132.085 62.5162 131.463 62.7624C130.84 63.0041 130.129 63.125 129.327 63.125ZM131.281 55.5511C131.478 55.9137 131.579 56.3277 131.583 56.7933H126.734C126.757 56.3892 126.861 56.0154 127.045 55.672C127.255 55.2825 127.548 54.9692 127.924 54.7319C128.3 54.4902 128.737 54.3694 129.233 54.3694C129.699 54.3694 130.106 54.4746 130.455 54.6849C130.809 54.8953 131.084 55.184 131.281 55.5511Z" fill="white"/>
<path d="M53.0033 88.9811H52.9986C52.8594 88.9811 52.7221 88.9447 52.6016 88.8748C52.5848 88.8655 52.5698 88.8553 52.5558 88.8459L26.4456 73.8066C26.4307 73.7991 26.4138 73.7907 26.3952 73.7805C26.2793 73.7134 26.1784 73.6128 26.1084 73.4925C26.0374 73.3714 26 73.2335 26 73.0937C26 73.0751 26 73.0574 26.0019 73.0415V42.96C26.0009 42.9442 26 42.9265 26 42.9078C26 42.768 26.0374 42.6311 26.1074 42.5099C26.1775 42.3888 26.2784 42.2872 26.3989 42.2182C26.412 42.2108 26.4269 42.2033 26.4419 42.1959L52.5567 27.1537C52.5698 27.1444 52.5857 27.1342 52.6025 27.1248C52.7212 27.0568 52.8585 27.0195 52.9986 27.0195C53.0005 27.0195 53.0023 27.0195 53.0033 27.0195C53.1434 27.0195 53.2807 27.0559 53.4012 27.1258C53.4171 27.1351 53.4321 27.1444 53.4451 27.1537L79.5553 42.1931C79.5694 42.1996 79.5852 42.208 79.6011 42.2173C79.7226 42.2872 79.8234 42.3878 79.8926 42.509C79.9626 42.6301 80 42.7671 80 42.9069C80 42.9255 80 42.9432 79.9981 42.9591V73.0397C79.9991 73.0555 80 73.0732 80 73.0919C80 73.2316 79.9626 73.3695 79.8916 73.4907C79.8216 73.6118 79.7216 73.7125 79.6002 73.7814C79.5871 73.7889 79.5721 73.7963 79.5572 73.8038L53.4433 88.8459C53.4293 88.8553 53.4124 88.8665 53.3947 88.8767C53.2789 88.9438 53.1415 88.9801 53.0023 88.9801L53.0033 88.9811ZM53.8057 74.4869L53.7973 86.8145L64.5114 80.6437L53.8048 74.4869H53.8057ZM41.4896 80.6437L52.2036 86.8145L52.1952 74.4869L41.4886 80.6437H41.4896ZM66.9075 66.9387L66.8991 79.2664L77.6132 73.0956L66.9066 66.9387H66.9075ZM28.3878 73.0956L39.1018 79.2664L39.0934 66.9387L28.3878 73.0956ZM54.611 73.0965L65.3064 79.2654L65.298 66.9397L54.611 73.0965ZM40.7039 66.9397L40.6955 79.2654L51.3909 73.0965L40.7039 66.9397ZM67.7119 65.5484L78.41 71.7192V59.3776L67.7119 65.5484ZM27.5909 59.3776V71.7192L38.2891 65.5484L27.5909 59.3776ZM53.8057 59.3916V71.7043L64.4918 65.5484L53.8057 59.3925V59.3916ZM41.5092 65.5475L52.1952 71.7034V59.3906L41.5092 65.5465V65.5475ZM66.9075 51.8425V64.1562L77.6104 57.9994L66.9075 51.8425ZM28.3906 58.0003L39.0934 64.1571V51.8435L28.3906 58.0003ZM54.611 58.0003L65.297 64.1562V51.8435L54.611 57.9994V58.0003ZM40.7039 51.8444V64.1571L51.39 58.0012L40.7039 51.8453V51.8444ZM67.7119 50.4522L78.41 56.623V44.2814L67.7119 50.4522ZM27.5909 44.2814V56.623L38.2891 50.4522L27.5909 44.2814ZM53.8057 44.2954V56.6081L64.4918 50.4522L53.8057 44.2963V44.2954ZM41.5092 50.4513L52.1952 56.6072V44.2954L41.5092 50.4513ZM66.8991 36.7342L66.9075 49.0619L77.6141 42.905L66.9001 36.7342H66.8991ZM28.3878 42.905L39.0943 49.0619L39.1027 36.7342L28.3878 42.905ZM54.611 42.9041L65.298 49.0609L65.3064 36.7352L54.611 42.9041ZM40.6955 36.7352L40.7039 49.0609L51.3909 42.9041L40.6955 36.7352ZM53.7973 29.1861L53.8057 41.5138L64.5123 35.3569L53.7973 29.1861ZM41.4896 35.3569L52.1961 41.5138L52.2046 29.1861L41.4905 35.3569H41.4896Z" fill="white"/>
</svg>
