<svg width="176" height="116" viewBox="0 0 176 116" fill="none" xmlns="http://www.w3.org/2000/svg">
<path d="M114.211 48.9844L111.67 59.2587H111.56L108.909 48.9844H106.368L103.716 59.2587H103.606L101.065 48.9844H98.3027L102.28 63.015H104.821L107.583 53.1825H107.693L110.566 63.015H112.996L116.973 48.9844H114.211Z" fill="white"/>
<path d="M124.375 53.1821C123.933 52.9611 123.491 52.7402 123.049 52.6297C122.497 52.4087 121.944 52.4087 121.502 52.4087C120.729 52.4087 120.066 52.5192 119.514 52.7402C118.962 52.9611 118.409 53.2925 117.967 53.7345C117.525 54.1764 117.194 54.7287 117.083 55.2811L119.403 55.6126C119.403 55.2811 119.624 54.9497 120.066 54.6183C120.398 54.3973 120.95 54.1764 121.502 54.1764C122.055 54.1764 122.497 54.2868 122.828 54.6183C123.16 54.9497 123.27 55.2811 123.27 55.8335C123.27 56.0545 123.16 56.2754 123.049 56.3859C122.828 56.4964 122.607 56.6069 122.165 56.6069C121.834 56.6069 121.282 56.7173 120.619 56.8278C120.066 56.8278 119.624 56.9383 119.182 57.0488C118.741 57.1592 118.299 57.3802 117.857 57.6011C117.525 57.8221 117.194 58.1535 116.973 58.485C116.752 58.9269 116.641 59.3688 116.641 59.9212C116.641 60.584 116.752 61.1364 117.083 61.6888C117.415 62.1307 117.857 62.4621 118.299 62.7936C118.851 63.0145 119.403 63.125 120.066 63.125C120.619 63.125 121.061 63.0145 121.502 62.904C121.944 62.7936 122.276 62.5726 122.497 62.2412C122.718 62.0202 122.939 61.6888 123.16 61.4678H123.381V62.904H125.811V55.944C125.811 55.2811 125.701 54.6183 125.48 54.1764C125.038 53.7345 124.706 53.403 124.375 53.1821ZM123.27 59.2583C123.27 59.7002 123.16 60.0316 122.939 60.3631C122.718 60.6945 122.497 60.9155 122.055 61.1364C121.723 61.3574 121.282 61.4678 120.729 61.4678C120.177 61.4678 119.845 61.3574 119.514 61.1364C119.182 60.9155 118.962 60.584 118.962 60.1421C118.962 59.8107 119.072 59.5897 119.182 59.3688C119.403 59.1478 119.624 59.0374 119.845 58.9269C120.177 58.8164 120.508 58.7059 120.84 58.7059C120.95 58.7059 121.171 58.7059 121.392 58.5954C121.613 58.5954 121.834 58.485 122.055 58.485C122.276 58.485 122.497 58.3745 122.718 58.3745C122.939 58.3745 123.049 58.264 123.16 58.1535V59.2583H123.27Z" fill="white"/>
<path d="M137.079 52.5196H134.207L130.451 56.7178H130.23V48.9844H127.799V63.015H130.23V59.4797L131.224 58.4854L134.428 63.015H137.3L132.992 57.0492L137.079 52.5196Z" fill="white"/>
<path d="M145.034 52.5188V58.595C145.034 59.1474 144.923 59.5893 144.702 59.9207C144.481 60.2522 144.15 60.5836 143.818 60.6941C143.487 60.915 143.156 60.915 142.714 60.915C142.161 60.915 141.609 60.6941 141.277 60.3626C140.946 59.9207 140.725 59.4788 140.725 58.816V52.5188H138.295V59.1474C138.295 60.0312 138.405 60.6941 138.736 61.2465C139.068 61.7988 139.399 62.2408 139.952 62.5722C140.504 62.9036 141.056 63.0141 141.83 63.0141C142.603 63.0141 143.266 62.7931 143.818 62.4617C144.371 62.1303 144.702 61.5779 145.034 61.0255H145.144V62.9036H147.575V52.5188H145.034Z" fill="white"/>
<path d="M89.7485 60.8013C89.6766 60.6936 89.5688 60.6218 89.461 60.5859C89.3532 60.5499 89.2094 60.514 89.1016 60.514C84.5738 60.5499 80.082 60.9809 75.6261 61.6992C74.1887 60.514 72.8231 59.3288 71.4576 58.0718C72.8231 56.7789 74.2246 55.5578 75.662 54.3726C80.082 55.1268 84.5738 55.5219 89.0657 55.5937C89.2454 55.5578 89.3532 55.5219 89.425 55.486C89.6406 55.3782 89.8563 55.1268 89.9281 54.8754C89.9641 54.7677 90 54.624 90 54.4804C90 54.3367 89.9641 54.229 89.9281 54.0853C89.8922 53.9776 89.8203 53.8698 89.7125 53.7621C89.6406 53.6543 89.5328 53.5825 89.3891 53.5466C89.2813 53.5107 89.1376 53.4747 89.0298 53.4747C85.2566 53.4388 81.4834 53.1156 77.7462 52.5769C80.6929 50.2783 83.7833 48.1235 87.0174 46.1841C87.233 46.0404 87.3768 45.8608 87.4127 45.6094C87.4846 45.358 87.4127 45.1425 87.3049 44.927C87.1611 44.7116 86.9815 44.5679 86.7299 44.4961C86.4784 44.4242 86.2268 44.4602 86.0112 44.5679C82.2381 46.8664 78.6086 49.3805 75.1948 52.1459C73.3981 51.8227 71.6373 51.4635 69.8765 51.0325C70.3436 49.3086 70.8108 47.6207 71.3498 45.9327C75.4823 44.4242 79.507 42.6285 83.388 40.5455C83.5677 40.4018 83.7114 40.2222 83.7473 39.9708C83.7833 39.7553 83.7473 39.5039 83.6395 39.3244C83.5317 39.1089 83.352 38.9652 83.1364 38.8934C82.9208 38.8215 82.6693 38.8215 82.4896 38.8934C79.1117 40.6891 75.662 42.2334 72.1044 43.5982C73.434 39.7194 75.0152 35.9484 76.8119 32.2492C76.8838 32.0337 76.8838 31.7823 76.8119 31.5309C76.74 31.3154 76.5604 31.1358 76.3807 30.9921C76.1651 30.8844 75.9495 30.8485 75.7339 30.9203C75.5182 30.9921 75.3026 31.0999 75.1948 31.3154C73.1106 35.5174 71.3498 39.899 69.9124 44.3883C68.2235 44.963 66.5345 45.5376 64.8456 46.0045C64.4503 44.2806 64.091 42.5208 63.7675 40.7609C66.5705 37.349 69.1218 33.7217 71.4217 29.9147C71.5295 29.6992 71.5654 29.4119 71.5295 29.1964C71.4576 28.945 71.3139 28.7295 71.0983 28.6218C70.9905 28.5499 70.8826 28.514 70.7389 28.4781C70.6311 28.4422 70.4874 28.4781 70.3796 28.4781C70.2718 28.514 70.1639 28.5499 70.0561 28.6577C69.9483 28.7295 69.8765 28.8373 69.8046 28.945C67.8641 32.1773 65.708 35.3019 63.3723 38.2828C62.7973 34.5118 62.438 30.7407 62.3301 26.9338C62.3301 26.826 62.2942 26.6824 62.2583 26.5746C62.2223 26.4669 62.1505 26.3591 62.0427 26.2873C61.9708 26.2155 61.863 26.1437 61.7552 26.0718C61.6474 26.0359 61.5036 26 61.3958 26C61.1443 26 60.9287 26.1077 60.749 26.2873C60.5693 26.4669 60.4975 26.7183 60.4975 26.9697C60.6053 31.4231 61.0365 35.8765 61.7911 40.2581C60.5693 41.7306 59.3116 43.1672 57.982 44.5679C56.9399 43.4186 55.8978 42.2694 54.8916 41.0842C55.8978 36.4512 56.5087 31.7464 56.7602 26.9697C56.7602 26.7183 56.6524 26.4669 56.5087 26.2873C56.365 26.1796 56.1134 26.0718 55.8619 26.0718C55.6103 26.0718 55.3588 26.1437 55.1791 26.3232C54.9994 26.5028 54.8916 26.7183 54.8557 26.9697C54.6401 31.0999 54.137 35.1942 53.3464 39.2166C50.7591 35.9843 48.3874 32.5724 46.2673 28.9809C46.1954 28.8732 46.1235 28.7654 46.0157 28.6936C45.9079 28.6577 45.8001 28.5859 45.6564 28.5499C45.5486 28.514 45.4048 28.514 45.297 28.5499C45.1892 28.5859 45.0455 28.6218 44.9377 28.6936C44.8299 28.7654 44.7221 28.8373 44.6502 28.945C44.5783 29.0527 44.5065 29.1605 44.5065 29.2682C44.4705 29.376 44.4705 29.5196 44.5065 29.6274C44.5424 29.7351 44.5783 29.8788 44.6502 29.9865C47.0938 34.0808 49.8607 37.9596 52.8793 41.6229C52.5559 43.1313 52.1606 44.6397 51.7653 46.1122C49.8248 45.5017 47.9203 44.8552 46.0517 44.1369C44.6502 39.8272 42.9253 35.5892 40.9489 31.5309C40.877 31.4231 40.8052 31.3154 40.7333 31.2435C40.6255 31.1717 40.5177 31.0999 40.4099 31.064C40.3021 31.0281 40.1583 31.0281 40.0505 31.0281C39.9427 31.0281 39.799 31.064 39.6912 31.1358C39.4756 31.2435 39.2959 31.459 39.224 31.7104C39.1522 31.9618 39.1881 32.2132 39.2959 32.4646C40.9848 35.9484 42.4582 39.5758 43.7518 43.2391C40.3021 41.8384 36.9601 40.2222 33.726 38.4265C33.6182 38.3547 33.5104 38.3187 33.3666 38.3187C33.2229 38.3187 33.1151 38.3187 32.9714 38.3547C32.8636 38.3906 32.7198 38.4265 32.612 38.5342C32.5042 38.6061 32.4323 38.7138 32.3605 38.8215C32.2167 39.037 32.2167 39.2884 32.2527 39.5398C32.3245 39.7912 32.4683 40.0067 32.6839 40.1145C36.457 42.1616 40.4099 43.9933 44.4705 45.5735C45.0814 47.477 45.6204 49.3805 46.1235 51.3199C44.4346 51.7149 42.7097 52.0382 40.9848 52.3614C37.4992 49.5241 33.8338 46.9383 29.9888 44.6038C29.7732 44.4961 29.5216 44.4602 29.2701 44.532C29.0185 44.6038 28.8389 44.7475 28.6951 44.963C28.5514 45.1785 28.5154 45.4299 28.5873 45.6453C28.6592 45.8608 28.8029 46.0763 28.9826 46.22C32.2527 48.1953 35.4149 50.3861 38.3975 52.7205C34.5884 53.2593 30.7793 53.5466 26.9343 53.5825C26.6828 53.5825 26.4672 53.6902 26.2875 53.8698C26.1437 54.0853 26.0359 54.3367 26.0359 54.5881C26.0359 54.7318 26.0719 54.8395 26.1078 54.9832C26.1437 55.0909 26.2156 55.1987 26.3234 55.3064C26.3953 55.4141 26.5031 55.486 26.6109 55.5219C26.7187 55.5578 26.8624 55.5937 26.9702 55.5937C31.498 55.5578 35.9899 55.1268 40.4458 54.4085C41.8832 55.5937 43.2847 56.8148 44.6143 58.1077C43.2847 59.3648 41.8832 60.5499 40.4818 61.6992C36.0258 60.945 31.498 60.5499 26.9702 60.514C26.7187 60.514 26.4672 60.6218 26.2875 60.8013C26.1078 60.9809 26 61.2323 26 61.5196C26 61.6633 26.0359 61.771 26.0719 61.8788C26.1078 61.9865 26.1797 62.0943 26.2875 62.202C26.3593 62.3098 26.4672 62.3816 26.6109 62.4175C26.7187 62.4534 26.8624 62.4893 26.9702 62.4893C30.7793 62.5253 34.5884 62.8485 38.3616 63.3872C35.379 65.7217 32.2167 67.8765 28.9467 69.8519C28.8389 69.9237 28.731 69.9955 28.6592 70.1033C28.5873 70.211 28.5154 70.3187 28.4795 70.4265C28.4436 70.5342 28.4436 70.6779 28.4795 70.7856C28.5154 70.8934 28.5514 71.037 28.6232 71.1448C28.6951 71.2884 28.8389 71.3962 28.9826 71.468C29.1263 71.5398 29.306 71.5758 29.4497 71.5758C29.6294 71.5758 29.8091 71.5398 29.9528 71.4321C33.7979 69.1336 37.4632 66.5836 40.913 63.7823C42.6378 64.0696 44.3627 64.4287 46.0876 64.8238C45.6204 66.6195 45.1173 68.4153 44.5424 70.1751C40.4458 71.6835 36.457 73.4792 32.612 75.5982C32.5042 75.67 32.3964 75.7419 32.3245 75.8496C32.2527 75.9574 32.1808 76.0651 32.1449 76.1728C32.1089 76.2806 32.1089 76.4242 32.1089 76.532C32.1089 76.6397 32.1449 76.7834 32.2167 76.8911C32.2886 76.9989 32.3605 77.1066 32.4323 77.1785C32.5042 77.2503 32.648 77.3221 32.7558 77.358C32.8636 77.3939 33.0073 77.3939 33.1151 77.3939C33.2229 77.3939 33.3666 77.358 33.4745 77.2862C36.7805 75.4905 40.2302 73.9102 43.7518 72.5455C42.4582 76.3524 40.913 80.0875 39.1522 83.7149C39.0803 83.8227 39.0444 83.9663 39.0444 84.0741C39.0444 84.2177 39.0444 84.3255 39.0803 84.4691C39.1162 84.5769 39.1881 84.7205 39.26 84.7924C39.3318 84.9001 39.4396 84.9719 39.5474 85.0438C39.6912 85.1156 39.8349 85.1515 39.9787 85.1515C40.1583 85.1515 40.3021 85.1156 40.4818 85.0079C40.6255 84.9001 40.7333 84.7924 40.8411 84.6128C42.8894 80.4467 44.6143 76.101 46.0517 71.6835C47.7406 71.073 49.4295 70.5342 51.1185 70.0314C51.5497 71.7553 51.909 73.4792 52.1965 75.2031C49.3936 78.651 46.8422 82.3143 44.5783 86.1212C44.5065 86.229 44.4705 86.3367 44.4705 86.4804C44.4705 86.624 44.4705 86.7318 44.4705 86.8395C44.5065 86.9473 44.5424 87.0909 44.6143 87.1627C44.6861 87.2705 44.7939 87.3423 44.9017 87.4141C45.0455 87.5219 45.2252 87.5578 45.3689 87.5578C45.5486 87.5578 45.6923 87.5219 45.836 87.4141C45.9798 87.3423 46.0876 87.1987 46.1954 87.055C48.1359 83.7868 50.292 80.6622 52.6277 77.6813C53.2027 81.4523 53.562 85.2593 53.6698 89.0662C53.6698 89.174 53.7058 89.3176 53.7417 89.4254C53.7776 89.5331 53.8495 89.6409 53.9573 89.7127C54.0292 89.7845 54.137 89.8563 54.2448 89.9282C54.3526 89.9641 54.4604 90 54.6042 90C54.712 90 54.8557 89.9641 54.9635 89.9282C55.0713 89.8923 55.1791 89.8204 55.251 89.7127C55.3229 89.6409 55.3947 89.5331 55.4307 89.3895C55.4666 89.2817 55.5025 89.138 55.5025 89.0303C55.3588 84.5769 54.9276 80.1235 54.1729 75.7419C55.3947 74.2694 56.6524 72.8328 57.9461 71.3962C59.0241 72.5095 60.0303 73.6947 61.0365 74.8799C60.0663 79.5129 59.4194 84.2536 59.2038 88.9944C59.2038 89.1021 59.2038 89.2458 59.2398 89.3535C59.2757 89.4613 59.3476 89.569 59.4194 89.6768C59.4913 89.7845 59.5991 89.8563 59.7069 89.8923C59.8147 89.9282 59.9584 89.9641 60.0663 89.9641C60.3178 89.9641 60.5334 89.8563 60.7131 89.6768C60.8928 89.4972 61.0006 89.2817 61.0006 89.0303C61.2162 84.9001 61.7552 80.8058 62.5458 76.7475C65.169 79.9798 67.5407 83.3917 69.6968 86.9832C69.7687 87.0909 69.8405 87.1987 69.9483 87.2705C70.0561 87.3423 70.1639 87.4141 70.2718 87.4501C70.3796 87.486 70.5233 87.486 70.6311 87.4501C70.7389 87.4141 70.8826 87.3782 70.9905 87.3064C71.2061 87.1627 71.3498 86.9472 71.4217 86.7318C71.4935 86.4804 71.4576 86.229 71.3139 86.0135C68.8344 81.9192 66.0674 78.0404 63.0129 74.3771C63.3363 72.9046 63.6957 71.3962 64.1269 69.9237C66.1033 70.5342 68.0438 71.1807 69.9483 71.899C71.3498 76.2088 73.0747 80.4467 75.087 84.5051C75.1589 84.6487 75.2667 84.7924 75.4104 84.9001C75.5542 85.0079 75.7339 85.0438 75.8776 85.0438C76.0573 85.0438 76.201 85.0079 76.3447 84.936C76.4885 84.8642 76.5963 84.7205 76.7041 84.5769C76.776 84.4332 76.8478 84.2537 76.8478 84.11C76.8478 83.9304 76.8119 83.7868 76.74 83.6072C75.0511 80.1235 73.5418 76.4961 72.2482 72.8328C75.662 74.2334 79.0039 75.8137 82.274 77.6094C82.4896 77.7172 82.7412 77.7531 82.9927 77.7172C83.2442 77.6453 83.4599 77.5017 83.5677 77.2862C83.6395 77.1785 83.6755 77.0707 83.7114 76.9271C83.7473 76.8193 83.7114 76.6756 83.7114 76.5679C83.6755 76.4602 83.6395 76.3165 83.5677 76.2447C83.4958 76.1369 83.388 76.0651 83.2802 75.9933C79.4711 73.9102 75.5542 72.0786 71.4935 70.5342C70.8826 68.6667 70.3436 66.7632 69.8405 64.8597C71.5654 64.4646 73.2903 64.1055 75.0152 63.8182C78.4649 66.6195 82.1303 69.1695 85.9753 71.468C86.119 71.5758 86.2987 71.6117 86.4784 71.6117C86.6581 71.6117 86.8018 71.5758 86.9455 71.5039C87.0893 71.4321 87.1971 71.2884 87.3049 71.1807C87.3768 71.073 87.4127 70.9652 87.4486 70.8215C87.4846 70.7138 87.4486 70.5701 87.4486 70.4624C87.4127 70.3547 87.3768 70.2469 87.2689 70.1392C87.1971 70.0314 87.0893 69.9596 86.9815 69.8878C83.7114 67.9125 80.5851 65.7576 77.6025 63.459C81.3756 62.9203 85.1488 62.633 88.9579 62.5612C89.2094 62.5612 89.461 62.4534 89.6047 62.2739C89.7844 62.0943 89.8922 61.8429 89.8922 61.5915C89.8922 61.4478 89.8563 61.3401 89.8203 61.1964C89.8922 60.9809 89.8203 60.8732 89.7485 60.8013ZM68.5469 63.1358C68.4391 63.1717 68.3313 63.2076 68.2235 63.2795C68.1157 63.3513 68.0438 63.459 67.9719 63.5668C67.9001 63.6745 67.8641 63.7823 67.8641 63.9259C67.8282 64.0696 67.8641 64.1773 67.8641 64.321C68.2953 66.1167 68.7984 67.9125 69.3015 69.6723C67.4688 69.0258 65.6362 68.4153 63.8035 67.8765C63.6957 67.8406 63.5519 67.8406 63.4441 67.8406C63.3363 67.8406 63.1926 67.8765 63.0848 67.9484C62.977 68.0202 62.8692 68.092 62.7973 68.1998C62.7254 68.3075 62.6536 68.4153 62.6176 68.523C62.2223 69.8878 61.863 71.2166 61.5396 72.5814C60.5693 71.468 59.5991 70.3906 58.5929 69.349C58.4132 69.1695 58.1976 69.0617 57.9461 69.0617C57.6946 69.0617 57.4789 69.1695 57.2993 69.349C56.0775 70.642 54.8916 71.9349 53.7417 73.2997C53.4183 71.7194 53.059 70.1033 52.6637 68.5589C52.5918 68.3075 52.4481 68.1279 52.2325 67.9843C52.0168 67.8765 51.7653 67.8406 51.5497 67.8765C49.9326 68.3075 48.3515 68.8103 46.7704 69.349C47.2734 67.6611 47.7406 65.9731 48.1359 64.2851C48.1718 64.1773 48.1718 64.0337 48.1359 63.89C48.0999 63.7464 48.064 63.6386 48.0281 63.5309C47.9562 63.4231 47.8843 63.3154 47.7765 63.2435C47.6687 63.1717 47.5609 63.0999 47.4531 63.0999C45.9438 62.7048 44.4346 62.3816 42.8894 62.0584C44.183 60.945 45.4408 59.8316 46.6625 58.6465C46.8422 58.4669 46.95 58.2514 46.95 58C46.95 57.7486 46.8422 57.5331 46.6625 57.3535C45.4408 56.1683 44.1471 55.0191 42.8535 53.9057C44.3987 53.6184 45.9438 53.2593 47.4531 52.9001C47.5609 52.8642 47.6687 52.8283 47.7765 52.7565C47.8843 52.6846 47.9562 52.5769 48.0281 52.4691C48.0999 52.3614 48.1359 52.2536 48.1359 52.11C48.1718 51.9663 48.1359 51.8586 48.1359 51.7149C47.7047 49.9192 47.2375 48.1594 46.6985 46.3996C48.4952 47.046 50.292 47.6207 52.0887 48.1594H52.3403C52.5559 48.1594 52.7355 48.0875 52.9152 47.9798C53.0949 47.8721 53.2027 47.6925 53.2746 47.5129C53.6698 46.1481 54.0292 44.7834 54.3526 43.4186C55.3229 44.532 56.2931 45.6094 57.2993 46.6869C57.4789 46.8664 57.7305 46.9742 57.9461 46.9742C58.1976 46.9742 58.4132 46.8664 58.5929 46.6869C59.8147 45.3939 61.0365 44.101 62.1864 42.7363C62.5098 44.3165 62.8692 45.9327 63.2645 47.5129C63.3004 47.7284 63.4441 47.8721 63.5879 48.0157C63.7316 48.1594 63.9472 48.1953 64.1628 48.1953H64.3784C65.9955 47.7643 67.5766 47.2615 69.1937 46.7228C68.6906 48.3389 68.2594 49.991 67.8641 51.6431C67.8282 51.7508 67.8282 51.8945 67.8641 52.0382C67.8641 52.1818 67.936 52.2896 67.9719 52.3973C68.0438 52.5051 68.1157 52.6128 68.2235 52.6846C68.3313 52.7565 68.4391 52.8283 68.5469 52.8642C70.0921 53.2593 71.6373 53.6184 73.1825 53.9057C71.8529 55.055 70.5952 56.2043 69.3374 57.3894C69.1578 57.569 69.05 57.7845 69.05 58.0359C69.05 58.2873 69.1578 58.5028 69.3374 58.6824C70.5592 59.8676 71.817 61.0168 73.1106 62.0943C71.6013 62.4175 70.0921 62.7767 68.5469 63.1358Z" fill="white"/>
</svg>
