<svg width="301" height="128" viewBox="0 0 301 128" fill="none" xmlns="http://www.w3.org/2000/svg">
<g clip-path="url(#clip0_2309_654)">
<path d="M35.9287 40.8643H33V86.8327H35.9287V40.8643Z" fill="white"/>
<path d="M93.9414 40.8643H91.0127V86.8327H93.9414V40.8643Z" fill="white"/>
<path d="M151.964 40.8643H149.035V86.8327H151.964V40.8643Z" fill="white"/>
<path d="M209.977 40.8643H207.048V86.8327H209.977V40.8643Z" fill="white"/>
<path d="M267.999 40.8643H265.07V86.8327H267.999V40.8643Z" fill="white"/>
<path d="M86.4775 33.4H40.4727V36.3252H86.4775V33.4Z" fill="white"/>
<path d="M144.492 33.4H98.4873V36.3252H144.492V33.4Z" fill="white"/>
<path d="M202.513 33.4H156.508V36.3252H202.513V33.4Z" fill="white"/>
<path d="M260.527 33.4H214.522V36.3252H260.527V33.4Z" fill="white"/>
<path d="M86.4775 91.3719H40.4727V94.2971H86.4775V91.3719Z" fill="white"/>
<path d="M144.492 91.3719H98.4873V94.2971H144.492V91.3719Z" fill="white"/>
<path d="M202.513 91.3719H156.508V94.2971H202.513V91.3719Z" fill="white"/>
<path d="M260.527 91.3719H214.522V94.2971H260.527V91.3719Z" fill="white"/>
<path d="M61.5334 76.8008V52.7666H54.6479C53.6563 52.7666 52.876 51.9872 52.876 50.9968V50.8501C52.876 49.8598 53.6563 49.0803 54.6479 49.0803H72.3117C73.3032 49.0803 74.0835 49.8598 74.0835 50.8501V50.9968C74.0835 51.9872 73.3032 52.7666 72.3117 52.7666H65.4261V76.8008C65.4261 77.837 64.6457 78.6164 63.5257 78.6164H63.443C62.3413 78.6164 61.5426 77.837 61.5426 76.8008H61.5334Z" fill="white"/>
<path d="M110.88 76.7551C110.88 76.4525 110.926 76.1315 111.027 75.7923L117.747 52.0148C118.234 50.2634 119.519 49.0621 121.318 49.0621C123.118 49.0621 124.321 50.2634 124.844 52.0148L132.023 75.8564C132.115 76.1682 132.161 76.4708 132.161 76.7459C132.161 77.8555 131.445 78.6257 130.224 78.6257H130.095C129.232 78.6257 128.571 78.2223 128.305 77.2961L126.781 72.3627H116.113L114.672 77.3878C114.414 78.2498 113.744 78.6349 112.946 78.6349H112.817C111.523 78.6349 110.88 77.8646 110.88 76.7643V76.7551ZM125.762 68.6581L121.346 53.4637H121.217L117.013 68.6581H125.762Z" fill="white"/>
<path d="M175.118 75.3154L171.317 68.4747C170.325 66.7049 170.096 65.3936 170.096 63.8348C170.096 62.2759 170.334 60.9646 171.317 59.1948L175.118 52.3541C176.109 50.5843 177.358 49.0621 179.974 49.0621H187.245C188.255 49.0621 189.017 49.8416 189.017 50.8319V50.9786C189.017 51.969 188.255 52.7484 187.245 52.7484H180.571C179.68 52.7484 179.175 52.9593 178.358 54.4357L174.897 60.6345C174.264 61.7716 174.007 62.661 174.007 63.8164C174.007 64.9718 174.264 65.8613 174.897 67.0075L178.358 73.2064C179.185 74.6827 179.69 74.8936 180.571 74.8936H187.245C188.255 74.8936 189.017 75.6731 189.017 76.6634V76.8101C189.017 77.8005 188.255 78.5799 187.245 78.5799H179.974C177.358 78.5799 176.109 77.0577 175.118 75.2879V75.3154Z" fill="white"/>
<path d="M230.771 59.7818L231.937 58.874C233.103 57.9662 234.141 57.526 235.784 57.526H239.42C241.063 57.526 242.1 57.9662 243.266 58.874L244.432 59.7818C246.269 61.2215 246.902 62.1018 246.902 64.275V71.8768C246.902 74.0501 246.269 74.9396 244.432 76.3701L243.266 77.2779C242.1 78.1857 241.063 78.6258 239.42 78.6258H235.784C234.132 78.6258 233.103 78.1857 231.937 77.2779L230.771 76.3701C228.935 74.9304 228.302 74.0501 228.302 71.8768V64.275C228.302 62.1018 228.935 61.2123 230.771 59.7818ZM233.094 73.6283L233.709 74.1143C234.49 74.7286 235.105 74.9396 236.16 74.9396H239.034C240.09 74.9396 240.696 74.7286 241.485 74.1143L242.1 73.6283C243.138 72.803 243.386 72.2344 243.386 70.8865V65.247C243.386 63.899 243.138 63.3489 242.1 62.5236L241.485 62.0376C240.705 61.4232 240.09 61.2123 239.034 61.2123H236.16C235.105 61.2123 234.49 61.4232 233.709 62.0376L233.094 62.5236C232.057 63.3489 231.809 63.899 231.809 65.247V70.8865C231.809 72.2344 232.066 72.8121 233.094 73.6283Z" fill="white"/>
</g>
<defs>
<clipPath id="clip0_2309_654">
<rect width="235" height="60.897" fill="white" transform="translate(33 33.4)"/>
</clipPath>
</defs>
</svg>
