<svg width="116" height="138" viewBox="0 0 116 138" fill="none" xmlns="http://www.w3.org/2000/svg">
<path d="M89.7445 60.8013C89.6727 60.6936 89.5649 60.6218 89.4571 60.5859C89.3493 60.5499 89.2055 60.514 89.0977 60.514C84.5699 60.5499 80.0781 60.9809 75.6221 61.6992C74.1848 60.514 72.8192 59.3288 71.4537 58.0718C72.8192 56.7789 74.2207 55.5578 75.6581 54.3726C80.0781 55.1268 84.5699 55.5219 89.0618 55.5937C89.2415 55.5578 89.3493 55.5219 89.4211 55.486C89.6367 55.3782 89.8524 55.1268 89.9242 54.8754C89.9602 54.7677 89.9961 54.624 89.9961 54.4804C89.9961 54.3367 89.9602 54.229 89.9242 54.0853C89.8883 53.9776 89.8164 53.8698 89.7086 53.7621C89.6367 53.6543 89.5289 53.5825 89.3852 53.5466C89.2774 53.5107 89.1337 53.4747 89.0259 53.4747C85.2527 53.4388 81.4795 53.1156 77.7423 52.5769C80.689 50.2783 83.7794 48.1235 87.0135 46.1841C87.2291 46.0404 87.3728 45.8608 87.4088 45.6094C87.4807 45.358 87.4088 45.1425 87.301 44.927C87.1572 44.7116 86.9776 44.5679 86.726 44.4961C86.4745 44.4242 86.2229 44.4602 86.0073 44.5679C82.2342 46.8664 78.6047 49.3805 75.1909 52.1459C73.3942 51.8227 71.6334 51.4635 69.8726 51.0325C70.3397 49.3086 70.8069 47.6207 71.3459 45.9327C75.4784 44.4242 79.5031 42.6285 83.3841 40.5455C83.5638 40.4018 83.7075 40.2222 83.7434 39.9708C83.7794 39.7553 83.7434 39.5039 83.6356 39.3244C83.5278 39.1089 83.3481 38.9652 83.1325 38.8934C82.9169 38.8215 82.6654 38.8215 82.4857 38.8934C79.1078 40.6891 75.6581 42.2334 72.1005 43.5982C73.4301 39.7194 75.0113 35.9484 76.808 32.2492C76.8799 32.0337 76.8799 31.7823 76.808 31.5309C76.7361 31.3154 76.5565 31.1358 76.3768 30.9921C76.1612 30.8844 75.9456 30.8485 75.73 30.9203C75.5143 30.9921 75.2987 31.0999 75.1909 31.3154C73.1067 35.5174 71.3459 39.899 69.9085 44.3883C68.2196 44.963 66.5306 45.5376 64.8417 46.0045C64.4464 44.2806 64.0871 42.5208 63.7636 40.7609C66.5666 37.349 69.1179 33.7217 71.4178 29.9147C71.5256 29.6992 71.5615 29.4119 71.5256 29.1964C71.4537 28.945 71.31 28.7295 71.0943 28.6218C70.9865 28.5499 70.8787 28.514 70.735 28.4781C70.6272 28.4422 70.4835 28.4781 70.3757 28.4781C70.2678 28.514 70.16 28.5499 70.0522 28.6577C69.9444 28.7295 69.8726 28.8373 69.8007 28.945C67.8602 32.1773 65.7041 35.3019 63.3684 38.2828C62.7934 34.5118 62.434 30.7407 62.3262 26.9338C62.3262 26.826 62.2903 26.6824 62.2544 26.5746C62.2184 26.4669 62.1466 26.3591 62.0388 26.2873C61.9669 26.2155 61.8591 26.1437 61.7513 26.0718C61.6435 26.0359 61.4997 26 61.3919 26C61.1404 26 60.9248 26.1077 60.7451 26.2873C60.5654 26.4669 60.4936 26.7183 60.4936 26.9697C60.6014 31.4231 61.0326 35.8765 61.7872 40.2581C60.5654 41.7306 59.3077 43.1672 57.9781 44.5679C56.936 43.4186 55.8939 42.2694 54.8877 41.0842C55.8939 36.4512 56.5048 31.7464 56.7563 26.9697C56.7563 26.7183 56.6485 26.4669 56.5048 26.2873C56.3611 26.1796 56.1095 26.0718 55.858 26.0718C55.6064 26.0718 55.3549 26.1437 55.1752 26.3232C54.9955 26.5028 54.8877 26.7183 54.8518 26.9697C54.6362 31.0999 54.1331 35.1942 53.3425 39.2166C50.7552 35.9843 48.3835 32.5724 46.2634 28.9809C46.1915 28.8732 46.1196 28.7654 46.0118 28.6936C45.904 28.6577 45.7962 28.5859 45.6525 28.5499C45.5447 28.514 45.4009 28.514 45.2931 28.5499C45.1853 28.5859 45.0416 28.6218 44.9338 28.6936C44.826 28.7654 44.7182 28.8373 44.6463 28.945C44.5744 29.0527 44.5025 29.1605 44.5025 29.2682C44.4666 29.376 44.4666 29.5196 44.5025 29.6274C44.5385 29.7351 44.5744 29.8788 44.6463 29.9865C47.0899 34.0808 49.8568 37.9596 52.8754 41.6229C52.552 43.1313 52.1567 44.6397 51.7614 46.1122C49.8209 45.5017 47.9164 44.8552 46.0477 44.1369C44.6463 39.8272 42.9214 35.5892 40.945 31.5309C40.8731 31.4231 40.8013 31.3154 40.7294 31.2435C40.6216 31.1717 40.5138 31.0999 40.406 31.064C40.2982 31.0281 40.1544 31.0281 40.0466 31.0281C39.9388 31.0281 39.7951 31.064 39.6873 31.1358C39.4717 31.2435 39.292 31.459 39.2201 31.7104C39.1483 31.9618 39.1842 32.2132 39.292 32.4646C40.9809 35.9484 42.4543 39.5758 43.7479 43.2391C40.2982 41.8384 36.9562 40.2222 33.7221 38.4265C33.6143 38.3547 33.5065 38.3187 33.3627 38.3187C33.219 38.3187 33.1112 38.3187 32.9675 38.3547C32.8597 38.3906 32.7159 38.4265 32.6081 38.5342C32.5003 38.6061 32.4284 38.7138 32.3566 38.8215C32.2128 39.037 32.2128 39.2884 32.2488 39.5398C32.3206 39.7912 32.4644 40.0067 32.68 40.1145C36.4531 42.1616 40.406 43.9933 44.4666 45.5735C45.0775 47.477 45.6165 49.3805 46.1196 51.3199C44.4307 51.7149 42.7058 52.0382 40.9809 52.3614C37.4952 49.5241 33.8299 46.9383 29.9849 44.6038C29.7693 44.4961 29.5177 44.4602 29.2662 44.532C29.0146 44.6038 28.8349 44.7475 28.6912 44.963C28.5475 45.1785 28.5115 45.4299 28.5834 45.6453C28.6553 45.8608 28.799 46.0763 28.9787 46.22C32.2488 48.1953 35.411 50.3861 38.3936 52.7205C34.5845 53.2593 30.7754 53.5466 26.9304 53.5825C26.6789 53.5825 26.4632 53.6902 26.2836 53.8698C26.1398 54.0853 26.032 54.3367 26.032 54.5881C26.032 54.7318 26.068 54.8395 26.1039 54.9832C26.1398 55.0909 26.2117 55.1987 26.3195 55.3064C26.3914 55.4141 26.4992 55.486 26.607 55.5219C26.7148 55.5578 26.8585 55.5937 26.9663 55.5937C31.4941 55.5578 35.986 55.1268 40.4419 54.4085C41.8793 55.5937 43.2808 56.8148 44.6104 58.1077C43.2808 59.3648 41.8793 60.5499 40.4778 61.6992C36.0219 60.945 31.4941 60.5499 26.9663 60.514C26.7148 60.514 26.4632 60.6218 26.2836 60.8013C26.1039 60.9809 25.9961 61.2323 25.9961 61.5196C25.9961 61.6633 26.032 61.771 26.068 61.8788C26.1039 61.9865 26.1758 62.0943 26.2836 62.202C26.3554 62.3098 26.4632 62.3816 26.607 62.4175C26.7148 62.4534 26.8585 62.4893 26.9663 62.4893C30.7754 62.5253 34.5845 62.8485 38.3577 63.3872C35.3751 65.7217 32.2128 67.8765 28.9428 69.8519C28.8349 69.9237 28.7271 69.9955 28.6553 70.1033C28.5834 70.211 28.5115 70.3187 28.4756 70.4265C28.4397 70.5342 28.4397 70.6779 28.4756 70.7856C28.5115 70.8934 28.5475 71.037 28.6193 71.1448C28.6912 71.2884 28.8349 71.3962 28.9787 71.468C29.1224 71.5398 29.3021 71.5758 29.4458 71.5758C29.6255 71.5758 29.8052 71.5398 29.9489 71.4321C33.794 69.1336 37.4593 66.5836 40.9091 63.7823C42.6339 64.0696 44.3588 64.4287 46.0837 64.8238C45.6165 66.6195 45.1134 68.4153 44.5385 70.1751C40.4419 71.6835 36.4531 73.4792 32.6081 75.5982C32.5003 75.67 32.3925 75.7419 32.3206 75.8496C32.2488 75.9574 32.1769 76.0651 32.141 76.1728C32.105 76.2806 32.105 76.4242 32.105 76.532C32.105 76.6397 32.141 76.7834 32.2128 76.8911C32.2847 76.9989 32.3566 77.1066 32.4284 77.1785C32.5003 77.2503 32.644 77.3221 32.7518 77.358C32.8597 77.3939 33.0034 77.3939 33.1112 77.3939C33.219 77.3939 33.3627 77.358 33.4705 77.2862C36.7766 75.4905 40.2263 73.9102 43.7479 72.5455C42.4543 76.3524 40.9091 80.0875 39.1483 83.7149C39.0764 83.8227 39.0404 83.9663 39.0404 84.0741C39.0404 84.2177 39.0404 84.3255 39.0764 84.4691C39.1123 84.5769 39.1842 84.7205 39.2561 84.7924C39.3279 84.9001 39.4357 84.9719 39.5435 85.0438C39.6873 85.1156 39.831 85.1515 39.9748 85.1515C40.1544 85.1515 40.2982 85.1156 40.4778 85.0079C40.6216 84.9001 40.7294 84.7924 40.8372 84.6128C42.8855 80.4467 44.6104 76.101 46.0477 71.6835C47.7367 71.073 49.4256 70.5342 51.1146 70.0314C51.5458 71.7553 51.9051 73.4792 52.1926 75.2031C49.3897 78.651 46.8383 82.3143 44.5744 86.1212C44.5025 86.229 44.4666 86.3367 44.4666 86.4804C44.4666 86.624 44.4666 86.7318 44.4666 86.8395C44.5025 86.9473 44.5385 87.0909 44.6104 87.1627C44.6822 87.2705 44.79 87.3423 44.8978 87.4141C45.0416 87.5219 45.2212 87.5578 45.365 87.5578C45.5447 87.5578 45.6884 87.5219 45.8321 87.4141C45.9759 87.3423 46.0837 87.1987 46.1915 87.055C48.132 83.7868 50.2881 80.6622 52.6238 77.6813C53.1988 81.4523 53.5581 85.2593 53.6659 89.0662C53.6659 89.174 53.7019 89.3176 53.7378 89.4254C53.7737 89.5331 53.8456 89.6409 53.9534 89.7127C54.0253 89.7845 54.1331 89.8563 54.2409 89.9282C54.3487 89.9641 54.4565 90 54.6002 90C54.7081 90 54.8518 89.9641 54.9596 89.9282C55.0674 89.8923 55.1752 89.8204 55.2471 89.7127C55.3189 89.6409 55.3908 89.5331 55.4267 89.3895C55.4627 89.2817 55.4986 89.138 55.4986 89.0303C55.3549 84.5769 54.9237 80.1235 54.169 75.7419C55.3908 74.2694 56.6485 72.8328 57.9422 71.3962C59.0202 72.5095 60.0264 73.6947 61.0326 74.8799C60.0623 79.5129 59.4155 84.2536 59.1999 88.9944C59.1999 89.1021 59.1999 89.2458 59.2358 89.3535C59.2718 89.4613 59.3436 89.569 59.4155 89.6768C59.4874 89.7845 59.5952 89.8563 59.703 89.8923C59.8108 89.9282 59.9545 89.9641 60.0623 89.9641C60.3139 89.9641 60.5295 89.8563 60.7092 89.6768C60.8888 89.4972 60.9967 89.2817 60.9967 89.0303C61.2123 84.9001 61.7513 80.8058 62.5419 76.7475C65.1651 79.9798 67.5368 83.3917 69.6929 86.9832C69.7648 87.0909 69.8366 87.1987 69.9444 87.2705C70.0522 87.3423 70.16 87.4141 70.2678 87.4501C70.3757 87.486 70.5194 87.486 70.6272 87.4501C70.735 87.4141 70.8787 87.3782 70.9865 87.3064C71.2022 87.1627 71.3459 86.9472 71.4178 86.7318C71.4896 86.4804 71.4537 86.229 71.31 86.0135C68.8305 81.9192 66.0635 78.0404 63.009 74.3771C63.3324 72.9046 63.6918 71.3962 64.123 69.9237C66.0994 70.5342 68.0399 71.1807 69.9444 71.899C71.3459 76.2088 73.0708 80.4467 75.0831 84.5051C75.155 84.6487 75.2628 84.7924 75.4065 84.9001C75.5503 85.0079 75.7299 85.0438 75.8737 85.0438C76.0534 85.0438 76.1971 85.0079 76.3408 84.936C76.4846 84.8642 76.5924 84.7205 76.7002 84.5769C76.7721 84.4332 76.8439 84.2537 76.8439 84.11C76.8439 83.9304 76.808 83.7868 76.7361 83.6072C75.0472 80.1235 73.5379 76.4961 72.2443 72.8328C75.6581 74.2334 79 75.8137 82.2701 77.6094C82.4857 77.7172 82.7372 77.7531 82.9888 77.7172C83.2403 77.6453 83.4559 77.5017 83.5638 77.2862C83.6356 77.1785 83.6716 77.0707 83.7075 76.9271C83.7434 76.8193 83.7075 76.6756 83.7075 76.5679C83.6716 76.4602 83.6356 76.3165 83.5638 76.2447C83.4919 76.1369 83.3841 76.0651 83.2763 75.9933C79.4672 73.9102 75.5503 72.0786 71.4896 70.5342C70.8787 68.6667 70.3397 66.7632 69.8366 64.8597C71.5615 64.4646 73.2864 64.1055 75.0113 63.8182C78.461 66.6195 82.1264 69.1695 85.9714 71.468C86.1151 71.5758 86.2948 71.6117 86.4745 71.6117C86.6541 71.6117 86.7979 71.5758 86.9416 71.5039C87.0854 71.4321 87.1932 71.2884 87.301 71.1807C87.3728 71.073 87.4088 70.9652 87.4447 70.8215C87.4806 70.7138 87.4447 70.5701 87.4447 70.4624C87.4088 70.3547 87.3728 70.2469 87.265 70.1392C87.1932 70.0314 87.0854 69.9596 86.9776 69.8878C83.7075 67.9125 80.5812 65.7576 77.5986 63.459C81.3717 62.9203 85.1449 62.633 88.954 62.5612C89.2055 62.5612 89.4571 62.4534 89.6008 62.2739C89.7805 62.0943 89.8883 61.8429 89.8883 61.5915C89.8883 61.4478 89.8524 61.3401 89.8164 61.1964C89.8883 60.9809 89.8164 60.8732 89.7445 60.8013ZM68.543 63.1358C68.4352 63.1717 68.3274 63.2076 68.2196 63.2795C68.1118 63.3513 68.0399 63.459 67.968 63.5668C67.8961 63.6745 67.8602 63.7823 67.8602 63.9259C67.8243 64.0696 67.8602 64.1773 67.8602 64.321C68.2914 66.1167 68.7945 67.9125 69.2976 69.6723C67.4649 69.0258 65.6322 68.4153 63.7996 67.8765C63.6918 67.8406 63.548 67.8406 63.4402 67.8406C63.3324 67.8406 63.1887 67.8765 63.0809 67.9484C62.9731 68.0202 62.8653 68.092 62.7934 68.1998C62.7215 68.3075 62.6497 68.4153 62.6137 68.523C62.2184 69.8878 61.8591 71.2166 61.5357 72.5814C60.5654 71.468 59.5952 70.3906 58.589 69.349C58.4093 69.1695 58.1937 69.0617 57.9422 69.0617C57.6906 69.0617 57.475 69.1695 57.2954 69.349C56.0736 70.642 54.8877 71.9349 53.7378 73.2997C53.4144 71.7194 53.055 70.1033 52.6598 68.5589C52.5879 68.3075 52.4442 68.1279 52.2285 67.9843C52.0129 67.8765 51.7614 67.8406 51.5458 67.8765C49.9287 68.3075 48.3476 68.8103 46.7664 69.349C47.2695 67.6611 47.7367 65.9731 48.132 64.2851C48.1679 64.1773 48.1679 64.0337 48.132 63.89C48.096 63.7464 48.0601 63.6386 48.0242 63.5309C47.9523 63.4231 47.8804 63.3154 47.7726 63.2435C47.6648 63.1717 47.557 63.0999 47.4492 63.0999C45.9399 62.7048 44.4307 62.3816 42.8855 62.0584C44.1791 60.945 45.4369 59.8316 46.6586 58.6465C46.8383 58.4669 46.9461 58.2514 46.9461 58C46.9461 57.7486 46.8383 57.5331 46.6586 57.3535C45.4369 56.1683 44.1432 55.0191 42.8495 53.9057C44.3947 53.6184 45.9399 53.2593 47.4492 52.9001C47.557 52.8642 47.6648 52.8283 47.7726 52.7565C47.8804 52.6846 47.9523 52.5769 48.0242 52.4691C48.096 52.3614 48.132 52.2536 48.132 52.11C48.1679 51.9663 48.132 51.8586 48.132 51.7149C47.7008 49.9192 47.2336 48.1594 46.6946 46.3996C48.4913 47.046 50.2881 47.6207 52.0848 48.1594H52.3363C52.552 48.1594 52.7316 48.0875 52.9113 47.9798C53.091 47.8721 53.1988 47.6925 53.2707 47.5129C53.6659 46.1481 54.0253 44.7834 54.3487 43.4186C55.3189 44.532 56.2892 45.6094 57.2954 46.6869C57.475 46.8664 57.7266 46.9742 57.9422 46.9742C58.1937 46.9742 58.4093 46.8664 58.589 46.6869C59.8108 45.3939 61.0326 44.101 62.1825 42.7363C62.5059 44.3165 62.8653 45.9327 63.2605 47.5129C63.2965 47.7284 63.4402 47.8721 63.584 48.0157C63.7277 48.1594 63.9433 48.1953 64.1589 48.1953H64.3745C65.9916 47.7643 67.5727 47.2615 69.1898 46.7228C68.6867 48.3389 68.2555 49.991 67.8602 51.6431C67.8243 51.7508 67.8243 51.8945 67.8602 52.0382C67.8602 52.1818 67.9321 52.2896 67.968 52.3973C68.0399 52.5051 68.1118 52.6128 68.2196 52.6846C68.3274 52.7565 68.4352 52.8283 68.543 52.8642C70.0882 53.2593 71.6334 53.6184 73.1786 53.9057C71.849 55.055 70.5913 56.2043 69.3335 57.3894C69.1539 57.569 69.0461 57.7845 69.0461 58.0359C69.0461 58.2873 69.1539 58.5028 69.3335 58.6824C70.5553 59.8676 71.813 61.0168 73.1067 62.0943C71.5974 62.4175 70.0882 62.7767 68.543 63.1358Z" fill="white"/>
<path d="M46.2247 107.517H46.1119L43.4229 97.25H40.9408L38.2518 107.498H38.1389L35.6192 97.25H32.8926L36.8414 111.203H39.3236L42.1254 101.406H42.2382L45.0212 111.203H47.5222L51.4523 97.25H48.7445L46.2247 107.517Z" fill="white"/>
<path d="M59.1997 101.368C58.786 101.105 58.3347 100.898 57.827 100.785C57.3193 100.672 56.8304 100.616 56.3227 100.616C55.5893 100.616 54.9312 100.728 54.3294 100.935C53.7277 101.142 53.22 101.462 52.8063 101.894C52.3926 102.327 52.0918 102.853 51.9037 103.493L54.1978 103.812C54.3294 103.455 54.5551 103.135 54.9124 102.872C55.2697 102.609 55.7398 102.477 56.3415 102.477C56.9056 102.477 57.3569 102.609 57.6578 102.891C57.9586 103.173 58.1091 103.568 58.1091 104.076V104.113C58.1091 104.358 58.0151 104.527 57.8458 104.64C57.6766 104.753 57.3945 104.828 57.0184 104.884C56.6424 104.941 56.1346 104.997 55.5329 105.053C55.0252 105.11 54.5363 105.204 54.0474 105.317C53.5773 105.43 53.1448 105.618 52.7687 105.843C52.3926 106.069 52.0918 106.389 51.8849 106.765C51.6593 107.159 51.5652 107.63 51.5652 108.231C51.5652 108.908 51.7157 109.491 52.0165 109.961C52.3174 110.431 52.7499 110.789 53.2764 111.033C53.8029 111.278 54.4047 111.39 55.0628 111.39C55.6081 111.39 56.0782 111.315 56.4919 111.165C56.9056 111.014 57.2441 110.807 57.5073 110.563C57.7706 110.3 57.9963 110.037 58.1467 109.754H58.2219V111.202H60.5912V104.207C60.5912 103.511 60.4596 102.929 60.2151 102.477C59.9331 102.007 59.6134 101.631 59.1997 101.368ZM58.1091 107.442C58.1091 107.836 58.0151 108.175 57.8082 108.513C57.6202 108.833 57.3381 109.096 56.962 109.303C56.6047 109.491 56.1723 109.604 55.6833 109.604C55.1756 109.604 54.7431 109.491 54.4235 109.266C54.085 109.04 53.9346 108.683 53.9346 108.231C53.9346 107.912 54.0098 107.648 54.179 107.46C54.3482 107.254 54.5739 107.103 54.8748 106.99C55.1568 106.877 55.4953 106.802 55.8714 106.746C56.0406 106.727 56.2287 106.689 56.4543 106.671C56.68 106.633 56.9056 106.595 57.1313 106.558C57.3569 106.52 57.5638 106.464 57.7518 106.407C57.9398 106.351 58.0715 106.294 58.1467 106.238V107.442H58.1091Z" fill="white"/>
<path d="M72.3249 100.748H69.4479L65.6871 104.941H65.5178V97.25H63.0545V111.203H65.5178V107.686L66.4204 106.727L69.6171 111.203H72.5694L68.2632 105.261L72.3249 100.748Z" fill="white"/>
<path d="M80.6364 100.747V106.802C80.6364 107.329 80.5235 107.78 80.2979 108.138C80.0722 108.495 79.809 108.758 79.4517 108.927C79.1132 109.097 78.756 109.191 78.3987 109.191C77.8157 109.191 77.3268 109.003 76.9696 108.608C76.6123 108.213 76.4242 107.686 76.4242 107.028V100.747H73.9609V107.404C73.9609 108.232 74.1113 108.946 74.4122 109.548C74.7131 110.131 75.1079 110.582 75.6345 110.883C76.161 111.184 76.7627 111.334 77.4585 111.334C78.2482 111.334 78.9064 111.146 79.4329 110.77C79.9782 110.394 80.3543 109.924 80.5988 109.341H80.7116V111.203H83.0997V100.747H80.6364Z" fill="white"/>
</svg>
