<svg width="106" height="138" viewBox="0 0 106 138" fill="none" xmlns="http://www.w3.org/2000/svg">
<path d="M52.9994 88.9811H52.9947C52.8555 88.9811 52.7182 88.9447 52.5977 88.8748C52.5809 88.8655 52.5659 88.8553 52.5519 88.8459L26.4417 73.8066C26.4267 73.7991 26.4099 73.7907 26.3912 73.7805C26.2754 73.7134 26.1745 73.6128 26.1045 73.4925C26.0335 73.3714 25.9961 73.2335 25.9961 73.0937C25.9961 73.0751 25.9961 73.0574 25.998 73.0415V42.96C25.997 42.9442 25.9961 42.9265 25.9961 42.9078C25.9961 42.768 26.0335 42.6311 26.1035 42.5099C26.1736 42.3888 26.2745 42.2872 26.395 42.2182C26.4081 42.2108 26.423 42.2033 26.438 42.1959L52.5528 27.1537C52.5659 27.1444 52.5818 27.1342 52.5986 27.1248C52.7172 27.0568 52.8546 27.0195 52.9947 27.0195C52.9966 27.0195 52.9984 27.0195 52.9994 27.0195C53.1395 27.0195 53.2768 27.0559 53.3973 27.1258C53.4132 27.1351 53.4282 27.1444 53.4412 27.1537L79.5514 42.1931C79.5654 42.1996 79.5813 42.208 79.5972 42.2173C79.7187 42.2872 79.8195 42.3878 79.8887 42.509C79.9587 42.6301 79.9961 42.7671 79.9961 42.9069C79.9961 42.9255 79.9961 42.9432 79.9942 42.9591V73.0397C79.9952 73.0555 79.9961 73.0732 79.9961 73.0919C79.9961 73.2316 79.9587 73.3695 79.8877 73.4907C79.8177 73.6118 79.7177 73.7125 79.5963 73.7814C79.5832 73.7889 79.5682 73.7963 79.5533 73.8038L53.4394 88.8459C53.4254 88.8553 53.4085 88.8665 53.3908 88.8767C53.2749 88.9438 53.1376 88.9801 52.9984 88.9801L52.9994 88.9811ZM53.8018 74.4869L53.7934 86.8145L64.5075 80.6437L53.8009 74.4869H53.8018ZM41.4857 80.6437L52.1997 86.8145L52.1913 74.4869L41.4847 80.6437H41.4857ZM66.9036 66.9387L66.8952 79.2664L77.6093 73.0956L66.9027 66.9387H66.9036ZM28.3838 73.0956L39.0979 79.2664L39.0895 66.9387L28.3838 73.0956ZM54.6071 73.0965L65.3025 79.2654L65.294 66.9397L54.6071 73.0965ZM40.7 66.9397L40.6916 79.2654L51.387 73.0965L40.7 66.9397ZM67.708 65.5484L78.4061 71.7192V59.3776L67.708 65.5484ZM27.587 59.3776V71.7192L38.2852 65.5484L27.587 59.3776ZM53.8018 59.3916V71.7043L64.4879 65.5484L53.8018 59.3925V59.3916ZM41.5053 65.5475L52.1913 71.7034V59.3906L41.5053 65.5465V65.5475ZM66.9036 51.8425V64.1562L77.6065 57.9994L66.9036 51.8425ZM28.3866 58.0003L39.0895 64.1571V51.8435L28.3866 58.0003ZM54.6071 58.0003L65.2931 64.1562V51.8435L54.6071 57.9994V58.0003ZM40.7 51.8444V64.1571L51.386 58.0012L40.7 51.8453V51.8444ZM67.708 50.4522L78.4061 56.623V44.2814L67.708 50.4522ZM27.587 44.2814V56.623L38.2852 50.4522L27.587 44.2814ZM53.8018 44.2954V56.6081L64.4879 50.4522L53.8018 44.2963V44.2954ZM41.5053 50.4513L52.1913 56.6072V44.2954L41.5053 50.4513ZM66.8952 36.7342L66.9036 49.0619L77.6102 42.905L66.8962 36.7342H66.8952ZM28.3838 42.905L39.0904 49.0619L39.0988 36.7342L28.3838 42.905ZM54.6071 42.9041L65.294 49.0609L65.3025 36.7352L54.6071 42.9041ZM40.6916 36.7352L40.7 49.0609L51.387 42.9041L40.6916 36.7352ZM53.7934 29.1861L53.8018 41.5138L64.5084 35.3569L53.7934 29.1861ZM41.4857 35.3569L52.1922 41.5138L52.2006 29.1861L41.4866 35.3569H41.4857Z" fill="white"/>
<path d="M37.1597 102.078H34.6547C34.5833 101.666 34.4516 101.301 34.2596 100.983C34.0676 100.661 33.8287 100.388 33.5429 100.164C33.2571 99.9403 32.9312 99.7724 32.565 99.6605C32.2034 99.5441 31.8127 99.4859 31.3929 99.4859C30.6473 99.4859 29.9864 99.6739 29.4104 100.05C28.8344 100.421 28.3834 100.968 28.0575 101.688C27.7315 102.404 27.5686 103.28 27.5686 104.314C27.5686 105.366 27.7315 106.252 28.0575 106.973C28.3879 107.689 28.8389 108.23 29.4104 108.597C29.9864 108.96 30.645 109.141 31.3862 109.141C31.797 109.141 32.181 109.088 32.5382 108.98C32.8999 108.868 33.2236 108.705 33.5094 108.49C33.7997 108.275 34.043 108.011 34.2395 107.698C34.4404 107.384 34.5788 107.026 34.6547 106.623L37.1597 106.637C37.0659 107.29 36.8627 107.904 36.5502 108.477C36.2421 109.05 35.838 109.555 35.3379 109.994C34.8378 110.428 34.2529 110.768 33.5831 111.015C32.9133 111.256 32.1699 111.377 31.3528 111.377C30.1472 111.377 29.0711 111.097 28.1245 110.538C27.1779 109.978 26.4322 109.17 25.8874 108.114C25.3427 107.058 25.0703 105.791 25.0703 104.314C25.0703 102.832 25.3449 101.565 25.8941 100.513C26.4433 99.4568 27.1913 98.6488 28.1379 98.0893C29.0845 97.5298 30.1561 97.25 31.3528 97.25C32.1163 97.25 32.8263 97.3574 33.4826 97.5723C34.139 97.7872 34.7239 98.1027 35.2374 98.519C35.7509 98.9308 36.1729 99.4367 36.5033 100.036C36.8382 100.632 37.057 101.312 37.1597 102.078Z" fill="white"/>
<path d="M43.4383 111.391C42.4336 111.391 41.5629 111.169 40.8262 110.726C40.0894 110.283 39.5179 109.663 39.1116 108.866C38.7097 108.069 38.5088 107.138 38.5088 106.073C38.5088 105.007 38.7097 104.074 39.1116 103.273C39.5179 102.472 40.0894 101.849 40.8262 101.406C41.5629 100.963 42.4336 100.742 43.4383 100.742C44.4429 100.742 45.3136 100.963 46.0504 101.406C46.7871 101.849 47.3564 102.472 47.7583 103.273C48.1646 104.074 48.3678 105.007 48.3678 106.073C48.3678 107.138 48.1646 108.069 47.7583 108.866C47.3564 109.663 46.7871 110.283 46.0504 110.726C45.3136 111.169 44.4429 111.391 43.4383 111.391ZM43.4517 109.443C43.9964 109.443 44.4519 109.293 44.818 108.994C45.1842 108.689 45.4565 108.282 45.6351 107.772C45.8182 107.261 45.9097 106.693 45.9097 106.066C45.9097 105.435 45.8182 104.864 45.6351 104.354C45.4565 103.839 45.1842 103.43 44.818 103.125C44.4519 102.821 43.9964 102.669 43.4517 102.669C42.8935 102.669 42.4292 102.821 42.0586 103.125C41.6924 103.43 41.4178 103.839 41.2348 104.354C41.0561 104.864 40.9668 105.435 40.9668 106.066C40.9668 106.693 41.0561 107.261 41.2348 107.772C41.4178 108.282 41.6924 108.689 42.0586 108.994C42.4292 109.293 42.8935 109.443 43.4517 109.443Z" fill="white"/>
<path d="M53.8661 111.37C53.058 111.37 52.3346 111.162 51.6961 110.746C51.0576 110.33 50.553 109.725 50.1824 108.933C49.8118 108.141 49.6265 107.178 49.6265 106.046C49.6265 104.9 49.814 103.933 50.1891 103.145C50.5686 102.353 51.0799 101.755 51.7229 101.353C52.3659 100.945 53.0825 100.742 53.8728 100.742C54.4756 100.742 54.9713 100.844 55.3597 101.05C55.7482 101.252 56.0563 101.496 56.284 101.782C56.5117 102.064 56.6881 102.331 56.8131 102.581H56.9136V97.438H59.3449V111.189H56.9605V109.564H56.8131C56.6881 109.815 56.5073 110.081 56.2706 110.363C56.034 110.641 55.7214 110.878 55.3329 111.075C54.9445 111.272 54.4555 111.37 53.8661 111.37ZM54.5426 109.376C55.0561 109.376 55.4937 109.238 55.8554 108.96C56.217 108.678 56.4916 108.286 56.6792 107.785C56.8667 107.284 56.9605 106.699 56.9605 106.032C56.9605 105.366 56.8667 104.786 56.6792 104.293C56.4961 103.801 56.2237 103.418 55.8621 103.145C55.5049 102.872 55.065 102.736 54.5426 102.736C54.0023 102.736 53.5514 102.877 53.1897 103.159C52.828 103.441 52.5556 103.83 52.3726 104.327C52.1895 104.824 52.098 105.392 52.098 106.032C52.098 106.677 52.1895 107.252 52.3726 107.758C52.5601 108.259 52.8347 108.656 53.1964 108.947C53.5625 109.233 54.0113 109.376 54.5426 109.376Z" fill="white"/>
<path d="M74.1157 100.876L76.192 104.683L78.3018 100.876H80.867L77.766 106.032L80.9206 111.189H78.3688L76.192 107.476L74.0353 111.189H71.4634L74.598 106.032L71.5438 100.876H74.1157Z" fill="white"/>
<path fill-rule="evenodd" clip-rule="evenodd" d="M66.1057 111.391C65.0743 111.391 64.1835 111.176 63.4333 110.746C62.6877 110.312 62.1139 109.699 61.712 108.906C61.3102 108.109 61.1092 107.172 61.1092 106.093C61.1092 105.032 61.3102 104.101 61.712 103.3C62.1184 102.494 62.6854 101.867 63.4133 101.42C64.1411 100.968 64.9961 100.742 65.9785 100.742C66.6125 100.742 67.2109 100.844 67.7735 101.05C68.3405 101.252 68.8406 101.565 69.2737 101.99C69.7113 102.416 70.0551 102.957 70.3052 103.615C70.5552 104.269 70.6803 105.048 70.6803 105.952V106.697H63.5141C63.5212 107.271 63.6305 107.766 63.8419 108.181C64.0607 108.606 64.3666 108.933 64.7595 109.161C65.1524 109.385 65.6123 109.497 66.1392 109.497C66.492 109.497 66.8112 109.448 67.097 109.349C67.3828 109.246 67.6306 109.097 67.8404 108.9C68.0503 108.703 68.2088 108.459 68.316 108.168L70.5798 108.423C70.4369 109.023 70.1645 109.546 69.7627 109.994C69.3653 110.437 68.8563 110.782 68.2356 111.028C67.6149 111.27 66.905 111.391 66.1057 111.391ZM68.0548 103.817C68.2512 104.179 68.3517 104.593 68.3562 105.059H63.5187C63.542 104.655 63.6452 104.281 63.8285 103.938C64.0384 103.548 64.3308 103.235 64.7059 102.998C65.081 102.756 65.5163 102.635 66.012 102.635C66.4763 102.635 66.8827 102.74 67.2309 102.951C67.5837 103.161 67.8583 103.45 68.0548 103.817Z" fill="white"/>
</svg>
